<?xml version="1.0" encoding="UTF-8"?>
<svg viewBox="0 0 39.53 24.63" xmlns="http://www.w3.org/2000/svg" font-family="IBM Plex Sans, sans-serif"><rect width="100%" height="100%" fill="#1c211e"/><defs><pattern id="hatch" width="0.6" height="0.6" patternUnits="userSpaceOnUse" patternTransform="rotate(45)"><line x1="0" y1="0" x2="0" y2="0.6" stroke="#383e3a" stroke-width="0.12"></line></pattern></defs><path d="M38.33 23.43L37.67 1.20L1.20 1.20L1.30 16.72L6.22 16.87L6.26 23.08Z" fill="#1c211e" stroke="#e8e9e4" stroke-width="0.14"></path><rect x="4.20" y="5.80" width="34.13" height="1.50" fill="#232825" stroke="none"></rect><rect x="1.20" y="1.20" width="3.00" height="22.23" fill="#232825" stroke="#848a84" stroke-width="0.06"></rect><line x1="1.60" y1="1.60" x2="3.80" y2="1.60" stroke="#848a84" stroke-width="0.04"></line><line x1="1.60" y1="1.88" x2="3.80" y2="1.88" stroke="#848a84" stroke-width="0.04"></line><line x1="1.60" y1="2.16" x2="3.80" y2="2.16" stroke="#848a84" stroke-width="0.04"></line><line x1="1.60" y1="2.44" x2="3.80" y2="2.44" stroke="#848a84" stroke-width="0.04"></line><line x1="1.60" y1="2.72" x2="3.80" y2="2.72" stroke="#848a84" stroke-width="0.04"></line><line x1="1.60" y1="3.00" x2="3.80" y2="3.00" stroke="#848a84" stroke-width="0.04"></line><line x1="1.60" y1="3.28" x2="3.80" y2="3.28" stroke="#848a84" stroke-width="0.04"></line><line x1="1.60" y1="3.56" x2="3.80" y2="3.56" stroke="#848a84" stroke-width="0.04"></line><line x1="1.60" y1="3.84" x2="3.80" y2="3.84" stroke="#848a84" stroke-width="0.04"></line><line x1="1.60" y1="4.12" x2="3.80" y2="4.12" stroke="#848a84" stroke-width="0.04"></line><line x1="1.60" y1="4.40" x2="3.80" y2="4.40" stroke="#848a84" stroke-width="0.04"></line><line x1="1.60" y1="4.68" x2="3.80" y2="4.68" stroke="#848a84" stroke-width="0.04"></line><line x1="1.60" y1="4.96" x2="3.80" y2="4.96" stroke="#848a84" stroke-width="0.04"></line><line x1="1.60" y1="5.24" x2="3.80" y2="5.24" stroke="#848a84" stroke-width="0.04"></line><line x1="1.60" y1="5.52" x2="3.80" y2="5.52" stroke="#848a84" stroke-width="0.04"></line><line x1="1.60" y1="5.80" x2="3.80" y2="5.80" stroke="#848a84" stroke-width="0.04"></line><line x1="1.60" y1="6.08" x2="3.80" y2="6.08" stroke="#848a84" stroke-width="0.04"></line><line x1="1.60" y1="6.36" x2="3.80" y2="6.36" stroke="#848a84" stroke-width="0.04"></line><line x1="1.60" y1="6.64" x2="3.80" y2="6.64" stroke="#848a84" stroke-width="0.04"></line><line x1="1.60" y1="6.92" x2="3.80" y2="6.92" stroke="#848a84" stroke-width="0.04"></line><line x1="1.60" y1="7.20" x2="3.80" y2="7.20" stroke="#848a84" stroke-width="0.04"></line><line x1="1.60" y1="7.48" x2="3.80" y2="7.48" stroke="#848a84" stroke-width="0.04"></line><line x1="1.60" y1="7.76" x2="3.80" y2="7.76" stroke="#848a84" stroke-width="0.04"></line><line x1="1.60" y1="8.04" x2="3.80" y2="8.04" stroke="#848a84" stroke-width="0.04"></line><line x1="1.60" y1="8.32" x2="3.80" y2="8.32" stroke="#848a84" stroke-width="0.04"></line><line x1="1.60" y1="8.60" x2="3.80" y2="8.60" stroke="#848a84" stroke-width="0.04"></line><line x1="1.60" y1="8.88" x2="3.80" y2="8.88" stroke="#848a84" stroke-width="0.04"></line><line x1="1.60" y1="9.16" x2="3.80" y2="9.16" stroke="#848a84" stroke-width="0.04"></line><line x1="1.60" y1="9.44" x2="3.80" y2="9.44" stroke="#848a84" stroke-width="0.04"></line><line x1="1.60" y1="9.72" x2="3.80" y2="9.72" stroke="#848a84" stroke-width="0.04"></line><line x1="1.60" y1="10.00" x2="3.80" y2="10.00" stroke="#848a84" stroke-width="0.04"></line><line x1="1.60" y1="10.28" x2="3.80" y2="10.28" stroke="#848a84" stroke-width="0.04"></line><line x1="1.60" y1="10.56" x2="3.80" y2="10.56" stroke="#848a84" stroke-width="0.04"></line><line x1="1.60" y1="10.84" x2="3.80" y2="10.84" stroke="#848a84" stroke-width="0.04"></line><line x1="1.60" y1="11.12" x2="3.80" y2="11.12" stroke="#848a84" stroke-width="0.04"></line><line x1="1.60" y1="11.40" x2="3.80" y2="11.40" stroke="#848a84" stroke-width="0.04"></line><line x1="1.60" y1="11.68" x2="3.80" y2="11.68" stroke="#848a84" stroke-width="0.04"></line><line x1="1.60" y1="11.96" x2="3.80" y2="11.96" stroke="#848a84" stroke-width="0.04"></line><line x1="1.60" y1="12.24" x2="3.80" y2="12.24" stroke="#848a84" stroke-width="0.04"></line><line x1="1.60" y1="12.52" x2="3.80" y2="12.52" stroke="#848a84" stroke-width="0.04"></line><line x1="1.60" y1="12.80" x2="3.80" y2="12.80" stroke="#848a84" stroke-width="0.04"></line><line x1="1.60" y1="13.08" x2="3.80" y2="13.08" stroke="#848a84" stroke-width="0.04"></line><line x1="1.60" y1="13.36" x2="3.80" y2="13.36" stroke="#848a84" stroke-width="0.04"></line><line x1="1.60" y1="13.64" x2="3.80" y2="13.64" stroke="#848a84" stroke-width="0.04"></line><line x1="1.60" y1="13.92" x2="3.80" y2="13.92" stroke="#848a84" stroke-width="0.04"></line><line x1="1.60" y1="14.20" x2="3.80" y2="14.20" stroke="#848a84" stroke-width="0.04"></line><line x1="1.60" y1="14.48" x2="3.80" y2="14.48" stroke="#848a84" stroke-width="0.04"></line><line x1="1.60" y1="14.76" x2="3.80" y2="14.76" stroke="#848a84" stroke-width="0.04"></line><line x1="1.60" y1="15.04" x2="3.80" y2="15.04" stroke="#848a84" stroke-width="0.04"></line><line x1="1.60" y1="15.32" x2="3.80" y2="15.32" stroke="#848a84" stroke-width="0.04"></line><line x1="1.60" y1="15.60" x2="3.80" y2="15.60" stroke="#848a84" stroke-width="0.04"></line><line x1="1.60" y1="15.88" x2="3.80" y2="15.88" stroke="#848a84" stroke-width="0.04"></line><line x1="1.60" y1="16.16" x2="3.80" y2="16.16" stroke="#848a84" stroke-width="0.04"></line><line x1="1.60" y1="16.44" x2="3.80" y2="16.44" stroke="#848a84" stroke-width="0.04"></line><line x1="1.60" y1="16.72" x2="3.80" y2="16.72" stroke="#848a84" stroke-width="0.04"></line><line x1="1.60" y1="17.00" x2="3.80" y2="17.00" stroke="#848a84" stroke-width="0.04"></line><line x1="1.60" y1="17.28" x2="3.80" y2="17.28" stroke="#848a84" stroke-width="0.04"></line><line x1="1.60" y1="17.56" x2="3.80" y2="17.56" stroke="#848a84" stroke-width="0.04"></line><line x1="1.60" y1="17.84" x2="3.80" y2="17.84" stroke="#848a84" stroke-width="0.04"></line><line x1="1.60" y1="18.12" x2="3.80" y2="18.12" stroke="#848a84" stroke-width="0.04"></line><line x1="1.60" y1="18.40" x2="3.80" y2="18.40" stroke="#848a84" stroke-width="0.04"></line><line x1="1.60" y1="18.68" x2="3.80" y2="18.68" stroke="#848a84" stroke-width="0.04"></line><line x1="1.60" y1="18.96" x2="3.80" y2="18.96" stroke="#848a84" stroke-width="0.04"></line><line x1="1.60" y1="19.24" x2="3.80" y2="19.24" stroke="#848a84" stroke-width="0.04"></line><line x1="1.60" y1="19.52" x2="3.80" y2="19.52" stroke="#848a84" stroke-width="0.04"></line><line x1="1.60" y1="19.80" x2="3.80" y2="19.80" stroke="#848a84" stroke-width="0.04"></line><line x1="1.60" y1="20.08" x2="3.80" y2="20.08" stroke="#848a84" stroke-width="0.04"></line><line x1="1.60" y1="20.36" x2="3.80" y2="20.36" stroke="#848a84" stroke-width="0.04"></line><line x1="1.60" y1="20.64" x2="3.80" y2="20.64" stroke="#848a84" stroke-width="0.04"></line><line x1="1.60" y1="20.92" x2="3.80" y2="20.92" stroke="#848a84" stroke-width="0.04"></line><line x1="1.60" y1="21.20" x2="3.80" y2="21.20" stroke="#848a84" stroke-width="0.04"></line><line x1="1.60" y1="21.48" x2="3.80" y2="21.48" stroke="#848a84" stroke-width="0.04"></line><line x1="1.60" y1="21.76" x2="3.80" y2="21.76" stroke="#848a84" stroke-width="0.04"></line><line x1="1.60" y1="22.04" x2="3.80" y2="22.04" stroke="#848a84" stroke-width="0.04"></line><line x1="1.60" y1="22.32" x2="3.80" y2="22.32" stroke="#848a84" stroke-width="0.04"></line><line x1="1.60" y1="22.60" x2="3.80" y2="22.60" stroke="#848a84" stroke-width="0.04"></line><line x1="1.60" y1="22.88" x2="3.80" y2="22.88" stroke="#848a84" stroke-width="0.04"></line><line x1="1.60" y1="23.16" x2="3.80" y2="23.16" stroke="#848a84" stroke-width="0.04"></line><rect class="room" data-room="0" x="4.20" y="1.20" width="2.63" height="4.60" fill="#372e19" stroke="#b0b5af" stroke-width="0.08"></rect><text x="5.51" y="3.70" font-size="0.58" text-anchor="middle" fill="#e8e9e4" pointer-events="none">130 SF</text><text x="4.45" y="1.72" font-size="0.35" fill="#848a84" pointer-events="none">1 SRA</text><rect class="room" data-room="1" x="6.83" y="1.20" width="2.63" height="4.60" fill="#372e19" stroke="#b0b5af" stroke-width="0.08"></rect><text x="8.14" y="3.70" font-size="0.58" text-anchor="middle" fill="#e8e9e4" pointer-events="none">130 SF</text><text x="7.08" y="1.72" font-size="0.35" fill="#848a84" pointer-events="none">2 SRA</text><rect class="room" data-room="2" x="9.45" y="1.20" width="2.63" height="4.60" fill="#372e19" stroke="#b0b5af" stroke-width="0.08"></rect><text x="10.76" y="3.70" font-size="0.58" text-anchor="middle" fill="#e8e9e4" pointer-events="none">130 SF</text><text x="9.70" y="1.72" font-size="0.35" fill="#848a84" pointer-events="none">3 SRA</text><rect class="room" data-room="3" x="12.08" y="1.20" width="2.63" height="4.60" fill="#1f3a2c" stroke="#b0b5af" stroke-width="0.08"></rect><text x="12.33" y="1.72" font-size="0.35" fill="#848a84" pointer-events="none">4</text><rect class="room" data-room="4" x="14.70" y="1.20" width="2.63" height="4.60" fill="#1f3a2c" stroke="#b0b5af" stroke-width="0.08"></rect><text x="14.95" y="1.72" font-size="0.35" fill="#848a84" pointer-events="none">5</text><rect class="room" data-room="5" x="17.33" y="1.20" width="2.63" height="4.60" fill="#1f3a2c" stroke="#b0b5af" stroke-width="0.08"></rect><text x="17.58" y="1.72" font-size="0.35" fill="#848a84" pointer-events="none">6</text><rect class="room" data-room="6" x="19.95" y="1.20" width="2.63" height="4.60" fill="#1f3a2c" stroke="#b0b5af" stroke-width="0.08"></rect><text x="20.20" y="1.72" font-size="0.35" fill="#848a84" pointer-events="none">7</text><rect class="room" data-room="7" x="22.58" y="1.20" width="2.63" height="4.60" fill="#1f3a2c" stroke="#b0b5af" stroke-width="0.08"></rect><text x="22.83" y="1.72" font-size="0.35" fill="#848a84" pointer-events="none">8</text><rect class="room" data-room="8" x="25.20" y="1.20" width="2.63" height="4.60" fill="#1f3a2c" stroke="#b0b5af" stroke-width="0.08"></rect><text x="25.45" y="1.72" font-size="0.35" fill="#848a84" pointer-events="none">9</text><rect class="room" data-room="9" x="27.83" y="1.20" width="2.63" height="4.60" fill="#1f3a2c" stroke="#b0b5af" stroke-width="0.08"></rect><text x="28.08" y="1.72" font-size="0.35" fill="#848a84" pointer-events="none">10</text><rect class="room" data-room="10" x="30.46" y="1.20" width="2.63" height="4.60" fill="#1f3a2c" stroke="#b0b5af" stroke-width="0.08"></rect><text x="30.71" y="1.72" font-size="0.35" fill="#848a84" pointer-events="none">11</text><rect class="room" data-room="11" x="33.08" y="1.20" width="2.63" height="4.60" fill="#1f3a2c" stroke="#b0b5af" stroke-width="0.08"></rect><text x="33.33" y="1.72" font-size="0.35" fill="#848a84" pointer-events="none">12</text><rect class="room" data-room="12" x="35.71" y="1.20" width="2.63" height="4.60" fill="#1f3a2c" stroke="#b0b5af" stroke-width="0.08"></rect><text x="35.96" y="1.72" font-size="0.35" fill="#848a84" pointer-events="none">13</text><rect class="room" data-room="13" x="4.20" y="18.83" width="2.63" height="4.60" fill="#1f3a2c" stroke="#b0b5af" stroke-width="0.08"></rect><text x="4.45" y="23.23" font-size="0.35" fill="#848a84" pointer-events="none">14</text><rect class="room" data-room="14" x="6.83" y="18.83" width="2.63" height="4.60" fill="#1f3a2c" stroke="#b0b5af" stroke-width="0.08"></rect><text x="7.08" y="23.23" font-size="0.35" fill="#848a84" pointer-events="none">15</text><rect class="room" data-room="15" x="9.45" y="18.83" width="2.63" height="4.60" fill="#1f3a2c" stroke="#b0b5af" stroke-width="0.08"></rect><text x="9.70" y="23.23" font-size="0.35" fill="#848a84" pointer-events="none">16</text><rect class="room" data-room="16" x="12.08" y="18.83" width="2.63" height="4.60" fill="#1f3a2c" stroke="#b0b5af" stroke-width="0.08"></rect><text x="12.33" y="23.23" font-size="0.35" fill="#848a84" pointer-events="none">17</text><rect class="room" data-room="17" x="14.70" y="18.83" width="2.63" height="4.60" fill="#1f3a2c" stroke="#b0b5af" stroke-width="0.08"></rect><text x="14.95" y="23.23" font-size="0.35" fill="#848a84" pointer-events="none">18</text><rect class="room" data-room="18" x="17.33" y="18.83" width="2.63" height="4.60" fill="#1f3a2c" stroke="#b0b5af" stroke-width="0.08"></rect><text x="17.58" y="23.23" font-size="0.35" fill="#848a84" pointer-events="none">19</text><rect class="room" data-room="19" x="19.95" y="18.83" width="2.63" height="4.60" fill="#1f3a2c" stroke="#b0b5af" stroke-width="0.08"></rect><text x="20.20" y="23.23" font-size="0.35" fill="#848a84" pointer-events="none">20</text><rect class="room" data-room="20" x="22.58" y="18.83" width="2.63" height="4.60" fill="#1f3a2c" stroke="#b0b5af" stroke-width="0.08"></rect><text x="22.83" y="23.23" font-size="0.35" fill="#848a84" pointer-events="none">21</text><rect class="room" data-room="21" x="25.20" y="18.83" width="2.63" height="4.60" fill="#1f3a2c" stroke="#b0b5af" stroke-width="0.08"></rect><text x="25.45" y="23.23" font-size="0.35" fill="#848a84" pointer-events="none">22</text><rect class="room" data-room="22" x="27.83" y="18.83" width="2.63" height="4.60" fill="#1f3a2c" stroke="#b0b5af" stroke-width="0.08"></rect><text x="28.08" y="23.23" font-size="0.35" fill="#848a84" pointer-events="none">23</text><rect class="room" data-room="23" x="30.46" y="18.83" width="2.63" height="4.60" fill="#1f3a2c" stroke="#b0b5af" stroke-width="0.08"></rect><text x="30.71" y="23.23" font-size="0.35" fill="#848a84" pointer-events="none">24</text><rect class="room" data-room="24" x="33.08" y="18.83" width="2.63" height="4.60" fill="#1f3a2c" stroke="#b0b5af" stroke-width="0.08"></rect><text x="33.33" y="23.23" font-size="0.35" fill="#848a84" pointer-events="none">25</text><line x1="4.86" y1="1.20" x2="6.17" y2="1.20" stroke="#1c211e" stroke-width="0.1" pointer-events="none"></line><line x1="4.86" y1="1.23" x2="6.17" y2="1.23" stroke="#e8e9e4" stroke-width="0.04" pointer-events="none"></line><line x1="4.86" y1="1.17" x2="6.17" y2="1.17" stroke="#e8e9e4" stroke-width="0.04" pointer-events="none"></line><line x1="7.48" y1="1.20" x2="8.79" y2="1.20" stroke="#1c211e" stroke-width="0.1" pointer-events="none"></line><line x1="7.48" y1="1.23" x2="8.79" y2="1.23" stroke="#e8e9e4" stroke-width="0.04" pointer-events="none"></line><line x1="7.48" y1="1.17" x2="8.79" y2="1.17" stroke="#e8e9e4" stroke-width="0.04" pointer-events="none"></line><line x1="10.11" y1="1.20" x2="11.42" y2="1.20" stroke="#1c211e" stroke-width="0.1" pointer-events="none"></line><line x1="10.11" y1="1.23" x2="11.42" y2="1.23" stroke="#e8e9e4" stroke-width="0.04" pointer-events="none"></line><line x1="10.11" y1="1.17" x2="11.42" y2="1.17" stroke="#e8e9e4" stroke-width="0.04" pointer-events="none"></line><line x1="12.73" y1="1.20" x2="14.05" y2="1.20" stroke="#1c211e" stroke-width="0.1" pointer-events="none"></line><line x1="12.73" y1="1.23" x2="14.05" y2="1.23" stroke="#e8e9e4" stroke-width="0.04" pointer-events="none"></line><line x1="12.73" y1="1.17" x2="14.05" y2="1.17" stroke="#e8e9e4" stroke-width="0.04" pointer-events="none"></line><line x1="15.36" y1="1.20" x2="16.67" y2="1.20" stroke="#1c211e" stroke-width="0.1" pointer-events="none"></line><line x1="15.36" y1="1.23" x2="16.67" y2="1.23" stroke="#e8e9e4" stroke-width="0.04" pointer-events="none"></line><line x1="15.36" y1="1.17" x2="16.67" y2="1.17" stroke="#e8e9e4" stroke-width="0.04" pointer-events="none"></line><line x1="17.98" y1="1.20" x2="19.30" y2="1.20" stroke="#1c211e" stroke-width="0.1" pointer-events="none"></line><line x1="17.98" y1="1.23" x2="19.30" y2="1.23" stroke="#e8e9e4" stroke-width="0.04" pointer-events="none"></line><line x1="17.98" y1="1.17" x2="19.30" y2="1.17" stroke="#e8e9e4" stroke-width="0.04" pointer-events="none"></line><line x1="20.61" y1="1.20" x2="21.92" y2="1.20" stroke="#1c211e" stroke-width="0.1" pointer-events="none"></line><line x1="20.61" y1="1.23" x2="21.92" y2="1.23" stroke="#e8e9e4" stroke-width="0.04" pointer-events="none"></line><line x1="20.61" y1="1.17" x2="21.92" y2="1.17" stroke="#e8e9e4" stroke-width="0.04" pointer-events="none"></line><line x1="23.24" y1="1.20" x2="24.55" y2="1.20" stroke="#1c211e" stroke-width="0.1" pointer-events="none"></line><line x1="23.24" y1="1.23" x2="24.55" y2="1.23" stroke="#e8e9e4" stroke-width="0.04" pointer-events="none"></line><line x1="23.24" y1="1.17" x2="24.55" y2="1.17" stroke="#e8e9e4" stroke-width="0.04" pointer-events="none"></line><line x1="25.86" y1="1.20" x2="27.17" y2="1.20" stroke="#1c211e" stroke-width="0.1" pointer-events="none"></line><line x1="25.86" y1="1.23" x2="27.17" y2="1.23" stroke="#e8e9e4" stroke-width="0.04" pointer-events="none"></line><line x1="25.86" y1="1.17" x2="27.17" y2="1.17" stroke="#e8e9e4" stroke-width="0.04" pointer-events="none"></line><line x1="28.49" y1="1.20" x2="29.80" y2="1.20" stroke="#1c211e" stroke-width="0.1" pointer-events="none"></line><line x1="28.49" y1="1.23" x2="29.80" y2="1.23" stroke="#e8e9e4" stroke-width="0.04" pointer-events="none"></line><line x1="28.49" y1="1.17" x2="29.80" y2="1.17" stroke="#e8e9e4" stroke-width="0.04" pointer-events="none"></line><line x1="31.11" y1="1.20" x2="32.42" y2="1.20" stroke="#1c211e" stroke-width="0.1" pointer-events="none"></line><line x1="31.11" y1="1.23" x2="32.42" y2="1.23" stroke="#e8e9e4" stroke-width="0.04" pointer-events="none"></line><line x1="31.11" y1="1.17" x2="32.42" y2="1.17" stroke="#e8e9e4" stroke-width="0.04" pointer-events="none"></line><line x1="33.74" y1="1.20" x2="35.05" y2="1.20" stroke="#1c211e" stroke-width="0.1" pointer-events="none"></line><line x1="33.74" y1="1.23" x2="35.05" y2="1.23" stroke="#e8e9e4" stroke-width="0.04" pointer-events="none"></line><line x1="33.74" y1="1.17" x2="35.05" y2="1.17" stroke="#e8e9e4" stroke-width="0.04" pointer-events="none"></line><line x1="36.36" y1="1.20" x2="37.68" y2="1.20" stroke="#1c211e" stroke-width="0.1" pointer-events="none"></line><line x1="36.36" y1="1.23" x2="37.68" y2="1.23" stroke="#e8e9e4" stroke-width="0.04" pointer-events="none"></line><line x1="36.36" y1="1.17" x2="37.68" y2="1.17" stroke="#e8e9e4" stroke-width="0.04" pointer-events="none"></line><line x1="4.86" y1="23.43" x2="6.17" y2="23.43" stroke="#1c211e" stroke-width="0.1" pointer-events="none"></line><line x1="4.86" y1="23.40" x2="6.17" y2="23.40" stroke="#e8e9e4" stroke-width="0.04" pointer-events="none"></line><line x1="4.86" y1="23.46" x2="6.17" y2="23.46" stroke="#e8e9e4" stroke-width="0.04" pointer-events="none"></line><line x1="7.48" y1="23.43" x2="8.79" y2="23.43" stroke="#1c211e" stroke-width="0.1" pointer-events="none"></line><line x1="7.48" y1="23.40" x2="8.79" y2="23.40" stroke="#e8e9e4" stroke-width="0.04" pointer-events="none"></line><line x1="7.48" y1="23.46" x2="8.79" y2="23.46" stroke="#e8e9e4" stroke-width="0.04" pointer-events="none"></line><line x1="10.11" y1="23.43" x2="11.42" y2="23.43" stroke="#1c211e" stroke-width="0.1" pointer-events="none"></line><line x1="10.11" y1="23.40" x2="11.42" y2="23.40" stroke="#e8e9e4" stroke-width="0.04" pointer-events="none"></line><line x1="10.11" y1="23.46" x2="11.42" y2="23.46" stroke="#e8e9e4" stroke-width="0.04" pointer-events="none"></line><line x1="12.73" y1="23.43" x2="14.05" y2="23.43" stroke="#1c211e" stroke-width="0.1" pointer-events="none"></line><line x1="12.73" y1="23.40" x2="14.05" y2="23.40" stroke="#e8e9e4" stroke-width="0.04" pointer-events="none"></line><line x1="12.73" y1="23.46" x2="14.05" y2="23.46" stroke="#e8e9e4" stroke-width="0.04" pointer-events="none"></line><line x1="15.36" y1="23.43" x2="16.67" y2="23.43" stroke="#1c211e" stroke-width="0.1" pointer-events="none"></line><line x1="15.36" y1="23.40" x2="16.67" y2="23.40" stroke="#e8e9e4" stroke-width="0.04" pointer-events="none"></line><line x1="15.36" y1="23.46" x2="16.67" y2="23.46" stroke="#e8e9e4" stroke-width="0.04" pointer-events="none"></line><line x1="17.98" y1="23.43" x2="19.30" y2="23.43" stroke="#1c211e" stroke-width="0.1" pointer-events="none"></line><line x1="17.98" y1="23.40" x2="19.30" y2="23.40" stroke="#e8e9e4" stroke-width="0.04" pointer-events="none"></line><line x1="17.98" y1="23.46" x2="19.30" y2="23.46" stroke="#e8e9e4" stroke-width="0.04" pointer-events="none"></line><line x1="20.61" y1="23.43" x2="21.92" y2="23.43" stroke="#1c211e" stroke-width="0.1" pointer-events="none"></line><line x1="20.61" y1="23.40" x2="21.92" y2="23.40" stroke="#e8e9e4" stroke-width="0.04" pointer-events="none"></line><line x1="20.61" y1="23.46" x2="21.92" y2="23.46" stroke="#e8e9e4" stroke-width="0.04" pointer-events="none"></line><line x1="23.24" y1="23.43" x2="24.55" y2="23.43" stroke="#1c211e" stroke-width="0.1" pointer-events="none"></line><line x1="23.24" y1="23.40" x2="24.55" y2="23.40" stroke="#e8e9e4" stroke-width="0.04" pointer-events="none"></line><line x1="23.24" y1="23.46" x2="24.55" y2="23.46" stroke="#e8e9e4" stroke-width="0.04" pointer-events="none"></line><line x1="25.86" y1="23.43" x2="27.17" y2="23.43" stroke="#1c211e" stroke-width="0.1" pointer-events="none"></line><line x1="25.86" y1="23.40" x2="27.17" y2="23.40" stroke="#e8e9e4" stroke-width="0.04" pointer-events="none"></line><line x1="25.86" y1="23.46" x2="27.17" y2="23.46" stroke="#e8e9e4" stroke-width="0.04" pointer-events="none"></line><line x1="28.49" y1="23.43" x2="29.80" y2="23.43" stroke="#1c211e" stroke-width="0.1" pointer-events="none"></line><line x1="28.49" y1="23.40" x2="29.80" y2="23.40" stroke="#e8e9e4" stroke-width="0.04" pointer-events="none"></line><line x1="28.49" y1="23.46" x2="29.80" y2="23.46" stroke="#e8e9e4" stroke-width="0.04" pointer-events="none"></line><line x1="31.11" y1="23.43" x2="32.42" y2="23.43" stroke="#1c211e" stroke-width="0.1" pointer-events="none"></line><line x1="31.11" y1="23.40" x2="32.42" y2="23.40" stroke="#e8e9e4" stroke-width="0.04" pointer-events="none"></line><line x1="31.11" y1="23.46" x2="32.42" y2="23.46" stroke="#e8e9e4" stroke-width="0.04" pointer-events="none"></line><line x1="33.74" y1="23.43" x2="35.05" y2="23.43" stroke="#1c211e" stroke-width="0.1" pointer-events="none"></line><line x1="33.74" y1="23.40" x2="35.05" y2="23.40" stroke="#e8e9e4" stroke-width="0.04" pointer-events="none"></line><line x1="33.74" y1="23.46" x2="35.05" y2="23.46" stroke="#e8e9e4" stroke-width="0.04" pointer-events="none"></line><line x1="4.35" y1="5.80" x2="5.25" y2="5.80" stroke="#1c211e" stroke-width="0.12" pointer-events="none"></line><path d="M4.35 5.80 L4.35 4.90 A0.90 0.90 0 0 1 5.25 5.80" fill="none" stroke="#b0b5af" stroke-width="0.05" pointer-events="none"></path><line x1="6.98" y1="5.80" x2="7.88" y2="5.80" stroke="#1c211e" stroke-width="0.12" pointer-events="none"></line><path d="M6.98 5.80 L6.98 4.90 A0.90 0.90 0 0 1 7.88 5.80" fill="none" stroke="#b0b5af" stroke-width="0.05" pointer-events="none"></path><line x1="9.60" y1="5.80" x2="10.50" y2="5.80" stroke="#1c211e" stroke-width="0.12" pointer-events="none"></line><path d="M9.60 5.80 L9.60 4.90 A0.90 0.90 0 0 1 10.50 5.80" fill="none" stroke="#b0b5af" stroke-width="0.05" pointer-events="none"></path><rect x="12.16" y="3.36" width="1.44" height="2.44" stroke="#848a84" fill="none" stroke-width="0.03" stroke-dasharray="0.18 0.1" pointer-events="none"></rect><line x1="13.70" y1="5.80" x2="14.60" y2="5.80" stroke="#1c211e" stroke-width="0.12" pointer-events="none"></line><path d="M13.70 5.80 L13.70 4.90 A0.90 0.90 0 0 1 14.60 5.80" fill="none" stroke="#b0b5af" stroke-width="0.05" pointer-events="none"></path><rect x="14.01" y="3.28" width="0.61" height="2.44" stroke="#e08d78" fill="none" stroke-width="0.03" stroke-dasharray="0.18 0.1" pointer-events="none"></rect><rect x="12.08" y="1.20" width="2.63" height="4.60" fill="none" stroke="#d5b169" stroke-width="0.14" pointer-events="none"></rect><text x="13.39" y="2.44" font-size="0.45" font-weight="600" text-anchor="middle" fill="#d5b169" pointer-events="none">A · 130 SF</text><rect x="14.78" y="3.36" width="1.44" height="2.44" stroke="#848a84" fill="none" stroke-width="0.03" stroke-dasharray="0.18 0.1" pointer-events="none"></rect><line x1="16.32" y1="5.80" x2="17.22" y2="5.80" stroke="#1c211e" stroke-width="0.12" pointer-events="none"></line><path d="M16.32 5.80 L16.32 4.90 A0.90 0.90 0 0 1 17.22 5.80" fill="none" stroke="#b0b5af" stroke-width="0.05" pointer-events="none"></path><rect x="16.64" y="3.28" width="0.61" height="2.44" stroke="#e08d78" fill="none" stroke-width="0.03" stroke-dasharray="0.18 0.1" pointer-events="none"></rect><rect x="14.70" y="1.20" width="2.63" height="4.60" fill="none" stroke="#d5b169" stroke-width="0.14" pointer-events="none"></rect><text x="16.01" y="2.44" font-size="0.45" font-weight="600" text-anchor="middle" fill="#d5b169" pointer-events="none">B · 130 SF</text><rect x="17.41" y="3.36" width="1.44" height="2.44" stroke="#848a84" fill="none" stroke-width="0.03" stroke-dasharray="0.18 0.1" pointer-events="none"></rect><line x1="18.95" y1="5.80" x2="19.85" y2="5.80" stroke="#1c211e" stroke-width="0.12" pointer-events="none"></line><path d="M18.95 5.80 L18.95 4.90 A0.90 0.90 0 0 1 19.85 5.80" fill="none" stroke="#b0b5af" stroke-width="0.05" pointer-events="none"></path><rect x="19.26" y="3.28" width="0.61" height="2.44" stroke="#e08d78" fill="none" stroke-width="0.03" stroke-dasharray="0.18 0.1" pointer-events="none"></rect><rect x="17.33" y="1.20" width="2.63" height="4.60" fill="none" stroke="#d5b169" stroke-width="0.14" pointer-events="none"></rect><text x="18.64" y="2.44" font-size="0.45" font-weight="600" text-anchor="middle" fill="#d5b169" pointer-events="none">C · 130 SF</text><rect x="20.03" y="3.36" width="1.44" height="2.44" stroke="#848a84" fill="none" stroke-width="0.03" stroke-dasharray="0.18 0.1" pointer-events="none"></rect><line x1="21.57" y1="5.80" x2="22.47" y2="5.80" stroke="#1c211e" stroke-width="0.12" pointer-events="none"></line><path d="M21.57 5.80 L21.57 4.90 A0.90 0.90 0 0 1 22.47 5.80" fill="none" stroke="#b0b5af" stroke-width="0.05" pointer-events="none"></path><rect x="21.89" y="3.28" width="0.61" height="2.44" stroke="#e08d78" fill="none" stroke-width="0.03" stroke-dasharray="0.18 0.1" pointer-events="none"></rect><rect x="19.95" y="1.20" width="2.63" height="4.60" fill="none" stroke="#d5b169" stroke-width="0.14" pointer-events="none"></rect><text x="21.27" y="2.44" font-size="0.45" font-weight="600" text-anchor="middle" fill="#d5b169" pointer-events="none">D · 130 SF</text><rect x="22.66" y="3.36" width="1.44" height="2.44" stroke="#848a84" fill="none" stroke-width="0.03" stroke-dasharray="0.18 0.1" pointer-events="none"></rect><line x1="24.20" y1="5.80" x2="25.10" y2="5.80" stroke="#1c211e" stroke-width="0.12" pointer-events="none"></line><path d="M24.20 5.80 L24.20 4.90 A0.90 0.90 0 0 1 25.10 5.80" fill="none" stroke="#b0b5af" stroke-width="0.05" pointer-events="none"></path><rect x="24.51" y="3.28" width="0.61" height="2.44" stroke="#e08d78" fill="none" stroke-width="0.03" stroke-dasharray="0.18 0.1" pointer-events="none"></rect><rect x="22.58" y="1.20" width="2.63" height="4.60" fill="none" stroke="#d5b169" stroke-width="0.14" pointer-events="none"></rect><text x="23.89" y="2.44" font-size="0.45" font-weight="600" text-anchor="middle" fill="#d5b169" pointer-events="none">E · 130 SF</text><line x1="27.83" y1="1.30" x2="27.83" y2="5.70" stroke="#1f3a2c" stroke-width="0.16" pointer-events="none"></line><rect x="25.28" y="3.36" width="1.44" height="2.44" stroke="#848a84" fill="none" stroke-width="0.03" stroke-dasharray="0.18 0.1" pointer-events="none"></rect><line x1="26.82" y1="5.80" x2="27.72" y2="5.80" stroke="#1c211e" stroke-width="0.12" pointer-events="none"></line><path d="M26.82 5.80 L26.82 4.90 A0.90 0.90 0 0 1 27.72 5.80" fill="none" stroke="#b0b5af" stroke-width="0.05" pointer-events="none"></path><rect x="27.82" y="5.19" width="2.44" height="0.61" stroke="#848a84" fill="none" stroke-width="0.03" stroke-dasharray="0.18 0.1" pointer-events="none"></rect><rect x="25.20" y="1.20" width="5.25" height="4.60" fill="none" stroke="#7fc59d" stroke-width="0.14" pointer-events="none"></rect><text x="27.83" y="2.48" font-size="0.58" font-weight="600" text-anchor="middle" fill="#7fc59d" pointer-events="none">F · 260 SF</text><line x1="33.08" y1="1.30" x2="33.08" y2="5.70" stroke="#1f3a2c" stroke-width="0.16" pointer-events="none"></line><rect x="30.54" y="3.36" width="1.44" height="2.44" stroke="#848a84" fill="none" stroke-width="0.03" stroke-dasharray="0.18 0.1" pointer-events="none"></rect><line x1="32.08" y1="5.80" x2="32.98" y2="5.80" stroke="#1c211e" stroke-width="0.12" pointer-events="none"></line><path d="M32.08 5.80 L32.08 4.90 A0.90 0.90 0 0 1 32.98 5.80" fill="none" stroke="#b0b5af" stroke-width="0.05" pointer-events="none"></path><rect x="33.08" y="5.19" width="2.44" height="0.61" stroke="#848a84" fill="none" stroke-width="0.03" stroke-dasharray="0.18 0.1" pointer-events="none"></rect><rect x="30.46" y="1.20" width="7.88" height="4.60" fill="none" stroke="#7fc59d" stroke-width="0.14" pointer-events="none"></rect><text x="34.39" y="2.48" font-size="0.58" font-weight="600" text-anchor="middle" fill="#7fc59d" pointer-events="none">G · 390 SF</text><line x1="35.71" y1="1.30" x2="35.71" y2="5.70" stroke="#1f3a2c" stroke-width="0.16" pointer-events="none"></line><rect x="4.28" y="18.83" width="1.44" height="2.44" stroke="#848a84" fill="none" stroke-width="0.03" stroke-dasharray="0.18 0.1" pointer-events="none"></rect><line x1="5.82" y1="18.83" x2="6.72" y2="18.83" stroke="#1c211e" stroke-width="0.12" pointer-events="none"></line><path d="M5.82 18.83 L5.82 19.73 A0.90 0.90 0 0 0 6.72 18.83" fill="none" stroke="#b0b5af" stroke-width="0.05" pointer-events="none"></path><rect x="6.14" y="18.91" width="0.61" height="2.44" stroke="#e08d78" fill="none" stroke-width="0.03" stroke-dasharray="0.18 0.1" pointer-events="none"></rect><rect x="4.20" y="18.83" width="2.63" height="4.60" fill="none" stroke="#d5b169" stroke-width="0.14" pointer-events="none"></rect><text x="5.51" y="22.51" font-size="0.45" font-weight="600" text-anchor="middle" fill="#d5b169" pointer-events="none">H · 130 SF</text><rect x="6.91" y="18.83" width="1.44" height="2.44" stroke="#848a84" fill="none" stroke-width="0.03" stroke-dasharray="0.18 0.1" pointer-events="none"></rect><line x1="8.45" y1="18.83" x2="9.35" y2="18.83" stroke="#1c211e" stroke-width="0.12" pointer-events="none"></line><path d="M8.45 18.83 L8.45 19.73 A0.90 0.90 0 0 0 9.35 18.83" fill="none" stroke="#b0b5af" stroke-width="0.05" pointer-events="none"></path><rect x="8.76" y="18.91" width="0.61" height="2.44" stroke="#e08d78" fill="none" stroke-width="0.03" stroke-dasharray="0.18 0.1" pointer-events="none"></rect><rect x="6.83" y="18.83" width="2.63" height="4.60" fill="none" stroke="#d5b169" stroke-width="0.14" pointer-events="none"></rect><text x="8.14" y="22.51" font-size="0.45" font-weight="600" text-anchor="middle" fill="#d5b169" pointer-events="none">I · 130 SF</text><rect x="9.53" y="18.83" width="1.44" height="2.44" stroke="#848a84" fill="none" stroke-width="0.03" stroke-dasharray="0.18 0.1" pointer-events="none"></rect><line x1="11.07" y1="18.83" x2="11.97" y2="18.83" stroke="#1c211e" stroke-width="0.12" pointer-events="none"></line><path d="M11.07 18.83 L11.07 19.73 A0.90 0.90 0 0 0 11.97 18.83" fill="none" stroke="#b0b5af" stroke-width="0.05" pointer-events="none"></path><rect x="11.39" y="18.91" width="0.61" height="2.44" stroke="#e08d78" fill="none" stroke-width="0.03" stroke-dasharray="0.18 0.1" pointer-events="none"></rect><rect x="9.45" y="18.83" width="2.63" height="4.60" fill="none" stroke="#d5b169" stroke-width="0.14" pointer-events="none"></rect><text x="10.76" y="22.51" font-size="0.45" font-weight="600" text-anchor="middle" fill="#d5b169" pointer-events="none">J · 130 SF</text><rect x="12.16" y="18.83" width="1.44" height="2.44" stroke="#848a84" fill="none" stroke-width="0.03" stroke-dasharray="0.18 0.1" pointer-events="none"></rect><line x1="13.70" y1="18.83" x2="14.60" y2="18.83" stroke="#1c211e" stroke-width="0.12" pointer-events="none"></line><path d="M13.70 18.83 L13.70 19.73 A0.90 0.90 0 0 0 14.60 18.83" fill="none" stroke="#b0b5af" stroke-width="0.05" pointer-events="none"></path><rect x="14.01" y="18.91" width="0.61" height="2.44" stroke="#e08d78" fill="none" stroke-width="0.03" stroke-dasharray="0.18 0.1" pointer-events="none"></rect><rect x="12.08" y="18.83" width="2.63" height="4.60" fill="none" stroke="#d5b169" stroke-width="0.14" pointer-events="none"></rect><text x="13.39" y="22.51" font-size="0.45" font-weight="600" text-anchor="middle" fill="#d5b169" pointer-events="none">K · 130 SF</text><rect x="14.78" y="18.83" width="1.44" height="2.44" stroke="#848a84" fill="none" stroke-width="0.03" stroke-dasharray="0.18 0.1" pointer-events="none"></rect><line x1="16.32" y1="18.83" x2="17.22" y2="18.83" stroke="#1c211e" stroke-width="0.12" pointer-events="none"></line><path d="M16.32 18.83 L16.32 19.73 A0.90 0.90 0 0 0 17.22 18.83" fill="none" stroke="#b0b5af" stroke-width="0.05" pointer-events="none"></path><rect x="16.64" y="18.91" width="0.61" height="2.44" stroke="#e08d78" fill="none" stroke-width="0.03" stroke-dasharray="0.18 0.1" pointer-events="none"></rect><rect x="14.70" y="18.83" width="2.63" height="4.60" fill="none" stroke="#d5b169" stroke-width="0.14" pointer-events="none"></rect><text x="16.01" y="22.51" font-size="0.45" font-weight="600" text-anchor="middle" fill="#d5b169" pointer-events="none">L · 130 SF</text><rect x="17.41" y="18.83" width="1.44" height="2.44" stroke="#848a84" fill="none" stroke-width="0.03" stroke-dasharray="0.18 0.1" pointer-events="none"></rect><line x1="18.95" y1="18.83" x2="19.85" y2="18.83" stroke="#1c211e" stroke-width="0.12" pointer-events="none"></line><path d="M18.95 18.83 L18.95 19.73 A0.90 0.90 0 0 0 19.85 18.83" fill="none" stroke="#b0b5af" stroke-width="0.05" pointer-events="none"></path><rect x="19.26" y="18.91" width="0.61" height="2.44" stroke="#e08d78" fill="none" stroke-width="0.03" stroke-dasharray="0.18 0.1" pointer-events="none"></rect><rect x="17.33" y="18.83" width="2.63" height="4.60" fill="none" stroke="#d5b169" stroke-width="0.14" pointer-events="none"></rect><text x="18.64" y="22.51" font-size="0.45" font-weight="600" text-anchor="middle" fill="#d5b169" pointer-events="none">M · 130 SF</text><rect x="20.03" y="18.83" width="1.44" height="2.44" stroke="#848a84" fill="none" stroke-width="0.03" stroke-dasharray="0.18 0.1" pointer-events="none"></rect><line x1="21.57" y1="18.83" x2="22.47" y2="18.83" stroke="#1c211e" stroke-width="0.12" pointer-events="none"></line><path d="M21.57 18.83 L21.57 19.73 A0.90 0.90 0 0 0 22.47 18.83" fill="none" stroke="#b0b5af" stroke-width="0.05" pointer-events="none"></path><rect x="21.89" y="18.91" width="0.61" height="2.44" stroke="#e08d78" fill="none" stroke-width="0.03" stroke-dasharray="0.18 0.1" pointer-events="none"></rect><rect x="19.95" y="18.83" width="2.63" height="4.60" fill="none" stroke="#d5b169" stroke-width="0.14" pointer-events="none"></rect><text x="21.27" y="22.51" font-size="0.45" font-weight="600" text-anchor="middle" fill="#d5b169" pointer-events="none">N · 130 SF</text><rect x="22.66" y="18.83" width="1.44" height="2.44" stroke="#848a84" fill="none" stroke-width="0.03" stroke-dasharray="0.18 0.1" pointer-events="none"></rect><line x1="24.20" y1="18.83" x2="25.10" y2="18.83" stroke="#1c211e" stroke-width="0.12" pointer-events="none"></line><path d="M24.20 18.83 L24.20 19.73 A0.90 0.90 0 0 0 25.10 18.83" fill="none" stroke="#b0b5af" stroke-width="0.05" pointer-events="none"></path><rect x="24.51" y="18.91" width="0.61" height="2.44" stroke="#e08d78" fill="none" stroke-width="0.03" stroke-dasharray="0.18 0.1" pointer-events="none"></rect><rect x="22.58" y="18.83" width="2.63" height="4.60" fill="none" stroke="#d5b169" stroke-width="0.14" pointer-events="none"></rect><text x="23.89" y="22.51" font-size="0.45" font-weight="600" text-anchor="middle" fill="#d5b169" pointer-events="none">O · 130 SF</text><rect x="25.28" y="18.83" width="1.44" height="2.44" stroke="#848a84" fill="none" stroke-width="0.03" stroke-dasharray="0.18 0.1" pointer-events="none"></rect><line x1="26.82" y1="18.83" x2="27.72" y2="18.83" stroke="#1c211e" stroke-width="0.12" pointer-events="none"></line><path d="M26.82 18.83 L26.82 19.73 A0.90 0.90 0 0 0 27.72 18.83" fill="none" stroke="#b0b5af" stroke-width="0.05" pointer-events="none"></path><rect x="27.14" y="18.91" width="0.61" height="2.44" stroke="#e08d78" fill="none" stroke-width="0.03" stroke-dasharray="0.18 0.1" pointer-events="none"></rect><rect x="25.20" y="18.83" width="2.63" height="4.60" fill="none" stroke="#d5b169" stroke-width="0.14" pointer-events="none"></rect><text x="26.52" y="22.51" font-size="0.45" font-weight="600" text-anchor="middle" fill="#d5b169" pointer-events="none">P · 130 SF</text><rect x="27.91" y="18.83" width="1.44" height="2.44" stroke="#848a84" fill="none" stroke-width="0.03" stroke-dasharray="0.18 0.1" pointer-events="none"></rect><line x1="29.45" y1="18.83" x2="30.35" y2="18.83" stroke="#1c211e" stroke-width="0.12" pointer-events="none"></line><path d="M29.45 18.83 L29.45 19.73 A0.90 0.90 0 0 0 30.35 18.83" fill="none" stroke="#b0b5af" stroke-width="0.05" pointer-events="none"></path><rect x="29.77" y="18.91" width="0.61" height="2.44" stroke="#e08d78" fill="none" stroke-width="0.03" stroke-dasharray="0.18 0.1" pointer-events="none"></rect><rect x="27.83" y="18.83" width="2.63" height="4.60" fill="none" stroke="#d5b169" stroke-width="0.14" pointer-events="none"></rect><text x="29.14" y="22.51" font-size="0.45" font-weight="600" text-anchor="middle" fill="#d5b169" pointer-events="none">Q · 130 SF</text><rect x="30.54" y="18.83" width="1.44" height="2.44" stroke="#848a84" fill="none" stroke-width="0.03" stroke-dasharray="0.18 0.1" pointer-events="none"></rect><line x1="32.08" y1="18.83" x2="32.98" y2="18.83" stroke="#1c211e" stroke-width="0.12" pointer-events="none"></line><path d="M32.08 18.83 L32.08 19.73 A0.90 0.90 0 0 0 32.98 18.83" fill="none" stroke="#b0b5af" stroke-width="0.05" pointer-events="none"></path><rect x="32.39" y="18.91" width="0.61" height="2.44" stroke="#e08d78" fill="none" stroke-width="0.03" stroke-dasharray="0.18 0.1" pointer-events="none"></rect><rect x="30.46" y="18.83" width="2.63" height="4.60" fill="none" stroke="#d5b169" stroke-width="0.14" pointer-events="none"></rect><text x="31.77" y="22.51" font-size="0.45" font-weight="600" text-anchor="middle" fill="#d5b169" pointer-events="none">R · 130 SF</text><rect x="33.16" y="18.83" width="1.44" height="2.44" stroke="#848a84" fill="none" stroke-width="0.03" stroke-dasharray="0.18 0.1" pointer-events="none"></rect><line x1="34.70" y1="18.83" x2="35.60" y2="18.83" stroke="#1c211e" stroke-width="0.12" pointer-events="none"></line><path d="M34.70 18.83 L34.70 19.73 A0.90 0.90 0 0 0 35.60 18.83" fill="none" stroke="#b0b5af" stroke-width="0.05" pointer-events="none"></path><rect x="35.02" y="18.91" width="0.61" height="2.44" stroke="#e08d78" fill="none" stroke-width="0.03" stroke-dasharray="0.18 0.1" pointer-events="none"></rect><rect x="33.08" y="18.83" width="2.63" height="4.60" fill="none" stroke="#d5b169" stroke-width="0.14" pointer-events="none"></rect><text x="34.39" y="22.51" font-size="0.45" font-weight="600" text-anchor="middle" fill="#d5b169" pointer-events="none">S · 130 SF</text><line x1="28.33" y1="24.13" x2="38.33" y2="24.13" stroke="#848a84" stroke-width="0.08"></line><text x="33.33" y="23.98" font-size="0.5" text-anchor="middle" fill="#848a84">10 m</text></svg>